<svg width="20" height="20" viewBox="0 0 20 20" fill="none" xmlns="http://www.w3.org/2000/svg">
    <path
        d="M2.5 13.3333L6.22472 9.60857C6.5077 9.3256 6.89149 9.16663 7.29167 9.16663C7.69185 9.16663 8.07564 9.3256 8.35861 9.60857L11.6667 12.9166M12.9167 14.1666L11.6667 12.9166M17.5 13.3333L15.4419 11.2752C15.159 10.9923 14.7752 10.8333 14.375 10.8333C13.9748 10.8333 13.591 10.9923 13.3081 11.2752L11.6667 12.9166"
        stroke="#0A0A0A" stroke-width="2" stroke-linecap="round" stroke-linejoin="round" />
    <path
        d="M12.9167 6.66671C13.1468 6.66671 13.3333 6.48016 13.3333 6.25004C13.3333 6.01992 13.1468 5.83337 12.9167 5.83337M12.9167 6.66671C12.6865 6.66671 12.5 6.48016 12.5 6.25004C12.5 6.01992 12.6865 5.83337 12.9167 5.83337M12.9167 6.66671V5.83337"
        stroke="#0A0A0A" stroke-width="2" stroke-linecap="round" stroke-linejoin="round" />
    <path
        d="M3.08034 16.4561C2.08203 15.2872 2.08203 13.5248 2.08203 10C2.08203 6.47526 2.08203 4.71288 3.08034 3.54401C3.2221 3.37803 3.37668 3.22344 3.54266 3.08168C4.71153 2.08337 6.47392 2.08337 9.9987 2.08337C13.5235 2.08337 15.2859 2.08337 16.4547 3.08168C16.6207 3.22344 16.7753 3.37803 16.9171 3.54401C17.9154 4.71288 17.9154 6.47526 17.9154 10C17.9154 13.5248 17.9154 15.2872 16.9171 16.4561C16.7753 16.6221 16.6207 16.7766 16.4547 16.9184C15.2859 17.9167 13.5235 17.9167 9.9987 17.9167C6.47392 17.9167 4.71153 17.9167 3.54266 16.9184C3.37668 16.7766 3.2221 16.6221 3.08034 16.4561Z"
        stroke="#0A0A0A" stroke-width="2" stroke-linecap="round" stroke-linejoin="round" />
</svg>
