<svg width="15" height="15" viewBox="0 0 15 15" fill="none" xmlns="http://www.w3.org/2000/svg">
    <path
        d="M2.66738 11.778C2.80793 12.8219 3.67258 13.6397 4.72479 13.6881C5.61017 13.7288 6.50956 13.75 7.5 13.75C8.49043 13.75 9.38983 13.7288 10.2752 13.6881C11.3274 13.6397 12.1921 12.8219 12.3326 11.778C12.4243 11.0967 12.5 10.3985 12.5 9.6875C12.5 8.97648 12.4243 8.27832 12.3326 7.59704C12.1921 6.55314 11.3274 5.73531 10.2752 5.68693C9.38983 5.64623 8.49044 5.625 7.5 5.625C6.50956 5.625 5.61017 5.64623 4.72479 5.68693C3.67258 5.73531 2.80793 6.55314 2.66738 7.59703C2.57565 8.27832 2.5 8.97648 2.5 9.6875C2.5 10.3985 2.57565 11.0967 2.66738 11.778Z"
        stroke="#047857" stroke-width="2" />
    <path
        d="M4.6875 5.625V4.0625C4.6875 2.5092 5.9467 1.25 7.5 1.25C9.0533 1.25 10.3125 2.5092 10.3125 4.0625V5.625"
        stroke="#047857" stroke-width="2" stroke-linecap="round" stroke-linejoin="round" />
    <path d="M7.49805 9.6875H7.50366" stroke="#047857" stroke-width="2" stroke-linecap="round"
        stroke-linejoin="round" />
</svg>
