<svg preserveAspectRatio="none" overflow="visible" style="display: block;" width="22.0002" height="19.0002" viewBox="0 0 22.0002 19.0002" fill="none" xmlns="http://www.w3.org/2000/svg">
<g id="elements">
<path id="Union" d="M11.6973 1.00021H10.3029C9.58831 1.00021 9.23103 1.00021 8.91059 1.11221C8.71491 1.18061 8.53105 1.279 8.3656 1.40388C8.09467 1.60838 7.89648 1.90566 7.50011 2.50021L7.5001 2.50023C7.29709 2.80474 6.99786 3.25358 6.87859 3.37892C6.58306 3.68949 6.19555 3.89687 5.77321 3.9705C5.60276 4.00021 5.41977 4.00021 5.05379 4.00021C4.07372 4.00021 3.58368 4.00021 3.183 4.11364C2.18066 4.39737 1.39726 5.18077 1.11353 6.18311C1.00011 6.58379 1.00011 7.07383 1.00011 8.0539V12.0002C1.00011 14.8286 1.00011 16.2429 1.87879 17.1215C2.75747 18.0002 4.17168 18.0002 7.00011 18.0002H15.0001C17.8285 18.0002 19.2427 18.0002 20.1214 17.1215C21.0001 16.2429 21.0001 14.8286 21.0001 12.0002V8.0539C21.0001 7.07383 21.0001 6.58379 20.8867 6.18311C20.603 5.18077 19.8196 4.39737 18.8172 4.11364C18.4165 4.00021 17.9265 4.00021 16.9464 4.00021C16.5804 4.00021 16.3975 4.00021 16.227 3.9705C15.8047 3.89687 15.4172 3.68949 15.1216 3.37892C15.0023 3.25358 14.7031 2.80473 14.5001 2.50021C14.1037 1.90566 13.9055 1.60838 13.6346 1.40388C13.4692 1.279 13.2853 1.18061 13.0896 1.11221C12.7692 1.00021 12.4119 1.00021 11.6973 1.00021Z" stroke="#0A0A0A" stroke-width="2" stroke-linecap="round" stroke-linejoin="round"/>
<path id="Vector" d="M15.0001 10.5002C15.0001 12.7094 13.2092 14.5002 11.0001 14.5002C8.79096 14.5002 7.00011 12.7094 7.00011 10.5002C7.00011 8.29107 8.79096 6.50021 11.0001 6.50021C13.2092 6.50021 15.0001 8.29107 15.0001 10.5002Z" stroke="#0A0A0A" stroke-width="2" stroke-linecap="round" stroke-linejoin="round"/>
<path id="Vector 9817" d="M18.0001 7.00021V7.01021" stroke="#0A0A0A" stroke-width="2" stroke-linecap="round" stroke-linejoin="round"/>
</g>
</svg>
