<svg preserveAspectRatio="none" overflow="visible" style="display: block;" width="17.8332" height="17.8345" viewBox="0 0 17.8332 17.8345" fill="none" xmlns="http://www.w3.org/2000/svg">
<g id="elements">
<path id="Rectangle 2167" d="M10.5582 2.49265C11.1481 1.85348 11.4431 1.5339 11.7566 1.34748C12.5129 0.897685 13.4441 0.883697 14.2131 1.31059C14.5317 1.48751 14.8358 1.7981 15.4438 2.41927C16.0519 3.04044 16.356 3.35103 16.5291 3.67657C16.947 4.46205 16.9333 5.41338 16.493 6.18597C16.3105 6.50617 15.9977 6.80749 15.372 7.41013L7.92743 14.5805C6.74171 15.7225 6.14885 16.2935 5.4079 16.583C4.66695 16.8724 3.85239 16.8511 2.22327 16.8085L2.00161 16.8027C1.50565 16.7897 1.25767 16.7832 1.11352 16.6196C0.969375 16.456 0.989055 16.2034 1.02841 15.6982L1.04979 15.4239C1.16057 14.002 1.21596 13.291 1.49362 12.6519C1.77128 12.0128 2.25024 11.4939 3.20815 10.4561L10.5582 2.49265Z" stroke="#404040" stroke-width="2" stroke-linejoin="round"/>
<path id="Vector 4200" d="M9.70819 2.58333L15.2499 8.125" stroke="#404040" stroke-width="2" stroke-linejoin="round"/>
<path id="Vector 4201" d="M10.4999 16.8333L16.8332 16.8333" stroke="#404040" stroke-width="2" stroke-linecap="round" stroke-linejoin="round"/>
</g>
</svg>
