<svg preserveAspectRatio="none" overflow="visible" style="display: block;" width="17.0414" height="15.4583" viewBox="0 0 17.0414 15.4583" fill="none" xmlns="http://www.w3.org/2000/svg">
<g id="elements">
<path id="Vector" d="M6.54167 1.79167H5.75C3.51083 1.79167 2.39125 1.79167 1.69562 2.48729C1 3.18291 1 4.3025 1 6.54167V9.70833C1 11.9475 1 13.0671 1.69562 13.7627C2.39125 14.4583 3.51083 14.4583 5.75 14.4583H8.94703C11.1862 14.4583 12.3058 14.4583 13.0014 13.7627C13.4521 13.312 13.6108 12.6833 13.6667 11.6875" stroke="#404040" stroke-width="2" stroke-linecap="round" stroke-linejoin="round"/>
<path id="Vector_2" d="M11.6873 3.77083V1.2799C11.6873 1.12531 11.8126 1 11.9672 1C12.0414 1 12.1126 1.02949 12.1651 1.08198L15.7615 4.67844C15.9407 4.85765 16.0414 5.10072 16.0414 5.35417C16.0414 5.60761 15.9407 5.85068 15.7615 6.0299L12.1651 9.62635C12.1126 9.67884 12.0414 9.70833 11.9672 9.70833C11.8126 9.70833 11.6873 9.58302 11.6873 9.42844V6.9375H9.36852C6.14559 6.9375 4.95809 9.70833 4.95809 9.70833V7.72917C4.95809 5.54304 6.7303 3.77083 8.91642 3.77083H11.6873Z" stroke="#404040" stroke-width="2" stroke-linecap="round" stroke-linejoin="round"/>
</g>
</svg>
